<svg width="458" height="331" viewBox="0 0 458 331" fill="none" xmlns="http://www.w3.org/2000/svg">
<rect width="458" height="331" fill="#1E1E1E"/>
<rect width="458" height="331" fill="#FFF9C4"/>
<path d="M160.318 155.818C160.114 154.091 159.284 152.75 157.83 151.795C156.375 150.841 154.591 150.364 152.477 150.364C150.932 150.364 149.58 150.614 148.42 151.114C147.273 151.614 146.375 152.301 145.727 153.176C145.091 154.051 144.773 155.045 144.773 156.159C144.773 157.091 144.994 157.892 145.438 158.562C145.892 159.222 146.472 159.773 147.176 160.216C147.881 160.648 148.619 161.006 149.392 161.29C150.165 161.562 150.875 161.784 151.523 161.955L155.068 162.909C155.977 163.148 156.989 163.477 158.102 163.898C159.227 164.318 160.301 164.892 161.324 165.619C162.358 166.335 163.21 167.256 163.881 168.381C164.551 169.506 164.886 170.886 164.886 172.523C164.886 174.409 164.392 176.114 163.403 177.636C162.426 179.159 160.994 180.369 159.108 181.267C157.233 182.165 154.955 182.614 152.273 182.614C149.773 182.614 147.608 182.21 145.778 181.403C143.96 180.597 142.528 179.472 141.483 178.028C140.449 176.585 139.864 174.909 139.727 173H144.091C144.205 174.318 144.648 175.409 145.42 176.273C146.205 177.125 147.193 177.761 148.386 178.182C149.591 178.591 150.886 178.795 152.273 178.795C153.886 178.795 155.335 178.534 156.619 178.011C157.903 177.477 158.92 176.739 159.67 175.795C160.42 174.841 160.795 173.727 160.795 172.455C160.795 171.295 160.472 170.352 159.824 169.625C159.176 168.898 158.324 168.307 157.267 167.852C156.21 167.398 155.068 167 153.841 166.659L149.545 165.432C146.818 164.648 144.659 163.528 143.068 162.074C141.477 160.619 140.682 158.716 140.682 156.364C140.682 154.409 141.21 152.705 142.267 151.25C143.335 149.784 144.767 148.648 146.562 147.841C148.369 147.023 150.386 146.614 152.614 146.614C154.864 146.614 156.864 147.017 158.614 147.824C160.364 148.619 161.75 149.71 162.773 151.097C163.807 152.483 164.352 154.057 164.409 155.818H160.318ZM171.291 182V155.818H175.314V182H171.291ZM173.337 151.455C172.553 151.455 171.876 151.188 171.308 150.653C170.751 150.119 170.473 149.477 170.473 148.727C170.473 147.977 170.751 147.335 171.308 146.801C171.876 146.267 172.553 146 173.337 146C174.121 146 174.791 146.267 175.348 146.801C175.916 147.335 176.2 147.977 176.2 148.727C176.2 149.477 175.916 150.119 175.348 150.653C174.791 151.188 174.121 151.455 173.337 151.455ZM186.705 147.091V182H182.682V147.091H186.705ZM198.095 147.091V182H194.072V147.091H198.095ZM208.054 191.818C207.372 191.818 206.764 191.761 206.23 191.648C205.696 191.545 205.327 191.443 205.122 191.341L206.145 187.795C207.122 188.045 207.986 188.136 208.736 188.068C209.486 188 210.151 187.665 210.73 187.062C211.321 186.472 211.861 185.511 212.349 184.182L213.099 182.136L203.418 155.818H207.781L215.009 176.682H215.281L222.509 155.818H226.872L215.759 185.818C215.259 187.17 214.639 188.29 213.901 189.176C213.162 190.074 212.304 190.739 211.327 191.17C210.361 191.602 209.27 191.818 208.054 191.818Z" fill="#1E1E1E"/>
<path d="M251.545 167.455H257.727L262.909 174.273L264.273 176.091L272 186.364H265.818L260.727 179.545L259.455 177.818L251.545 167.455ZM273.909 158.727C273.909 163.636 273.023 167.879 271.25 171.455C269.477 175.03 267.045 177.788 263.955 179.727C260.864 181.667 257.333 182.636 253.364 182.636C249.394 182.636 245.864 181.667 242.773 179.727C239.682 177.788 237.25 175.03 235.477 171.455C233.705 167.879 232.818 163.636 232.818 158.727C232.818 153.818 233.705 149.576 235.477 146C237.25 142.424 239.682 139.667 242.773 137.727C245.864 135.788 249.394 134.818 253.364 134.818C257.333 134.818 260.864 135.788 263.955 137.727C267.045 139.667 269.477 142.424 271.25 146C273.023 149.576 273.909 153.818 273.909 158.727ZM268.455 158.727C268.455 154.697 267.78 151.295 266.432 148.523C265.098 145.75 263.288 143.652 261 142.227C258.727 140.803 256.182 140.091 253.364 140.091C250.545 140.091 247.992 140.803 245.705 142.227C243.432 143.652 241.621 145.75 240.273 148.523C238.939 151.295 238.273 154.697 238.273 158.727C238.273 162.758 238.939 166.159 240.273 168.932C241.621 171.705 243.432 173.803 245.705 175.227C247.992 176.652 250.545 177.364 253.364 177.364C256.182 177.364 258.727 176.652 261 175.227C263.288 173.803 265.098 171.705 266.432 168.932C267.78 166.159 268.455 162.758 268.455 158.727ZM283.386 182V135.455H289.023V177H310.659V182H283.386Z" fill="black"/>
<path d="M251.545 167.455V166.455H249.524L250.751 168.061L251.545 167.455ZM257.727 167.455L258.523 166.849L258.223 166.455H257.727V167.455ZM262.909 174.273L263.709 173.673L263.705 173.668L262.909 174.273ZM264.273 176.091L263.473 176.691L263.474 176.692L264.273 176.091ZM272 186.364V187.364H274.004L272.799 185.763L272 186.364ZM265.818 186.364L265.017 186.962L265.317 187.364H265.818V186.364ZM260.727 179.545L259.922 180.139L259.926 180.144L260.727 179.545ZM259.455 177.818L260.26 177.225L260.255 177.218L260.249 177.212L259.455 177.818ZM271.25 171.455L270.354 171.01L270.354 171.01L271.25 171.455ZM263.955 179.727L264.486 180.574L264.486 180.574L263.955 179.727ZM242.773 179.727L242.241 180.574L242.241 180.574L242.773 179.727ZM235.477 171.455L236.373 171.01L236.373 171.01L235.477 171.455ZM235.477 146L234.581 145.556L235.477 146ZM263.955 137.727L264.486 136.88L264.486 136.88L263.955 137.727ZM271.25 146L270.354 146.444L270.354 146.444L271.25 146ZM266.432 148.523L265.531 148.956L265.533 148.96L266.432 148.523ZM261 142.227L260.469 143.075L260.472 143.076L261 142.227ZM245.705 142.227L245.176 141.378L245.174 141.38L245.705 142.227ZM240.273 148.523L239.373 148.085L239.372 148.089L240.273 148.523ZM240.273 168.932L239.372 169.365L239.373 169.369L240.273 168.932ZM245.705 175.227L245.174 176.075L245.176 176.076L245.705 175.227ZM261 175.227L260.472 174.378L260.469 174.38L261 175.227ZM266.432 168.932L265.533 168.494L265.531 168.498L266.432 168.932ZM251.545 168.455H257.727V166.455H251.545V168.455ZM256.931 168.06L262.113 174.878L263.705 173.668L258.523 166.849L256.931 168.06ZM262.109 174.873L263.473 176.691L265.073 175.491L263.709 173.673L262.109 174.873ZM263.474 176.692L271.201 186.965L272.799 185.763L265.072 175.49L263.474 176.692ZM272 185.364H265.818V187.364H272V185.364ZM266.619 185.765L261.529 178.947L259.926 180.144L265.017 186.962L266.619 185.765ZM261.532 178.952L260.26 177.225L258.649 178.411L259.922 180.139L261.532 178.952ZM260.249 177.212L252.34 166.848L250.751 168.061L258.66 178.425L260.249 177.212ZM272.909 158.727C272.909 163.517 272.044 167.601 270.354 171.01L272.146 171.899C274.001 168.157 274.909 163.756 274.909 158.727H272.909ZM270.354 171.01C268.655 174.437 266.343 177.048 263.423 178.88L264.486 180.574C267.748 178.528 270.299 175.624 272.146 171.899L270.354 171.01ZM263.423 178.88C260.505 180.711 257.162 181.636 253.364 181.636V183.636C257.504 183.636 261.222 182.622 264.486 180.574L263.423 178.88ZM253.364 181.636C249.565 181.636 246.222 180.711 243.304 178.88L242.241 180.574C245.505 182.622 249.223 183.636 253.364 183.636V181.636ZM243.304 178.88C240.384 177.048 238.072 174.437 236.373 171.01L234.581 171.899C236.428 175.624 238.979 178.528 242.241 180.574L243.304 178.88ZM236.373 171.01C234.683 167.601 233.818 163.517 233.818 158.727H231.818C231.818 163.756 232.726 168.157 234.581 171.899L236.373 171.01ZM233.818 158.727C233.818 153.937 234.683 149.854 236.373 146.444L234.581 145.556C232.726 149.298 231.818 153.699 231.818 158.727H233.818ZM236.373 146.444C238.072 143.018 240.384 140.407 243.304 138.574L242.241 136.88C238.979 138.927 236.428 141.831 234.581 145.556L236.373 146.444ZM243.304 138.574C246.222 136.744 249.565 135.818 253.364 135.818V133.818C249.223 133.818 245.505 134.832 242.241 136.88L243.304 138.574ZM253.364 135.818C257.162 135.818 260.505 136.744 263.423 138.574L264.486 136.88C261.222 134.832 257.504 133.818 253.364 133.818V135.818ZM263.423 138.574C266.343 140.407 268.655 143.018 270.354 146.444L272.146 145.556C270.299 141.831 267.748 138.927 264.486 136.88L263.423 138.574ZM270.354 146.444C272.044 149.854 272.909 153.937 272.909 158.727H274.909C274.909 153.699 274.001 149.298 272.146 145.556L270.354 146.444ZM269.455 158.727C269.455 154.59 268.763 151.03 267.331 148.085L265.533 148.96C266.798 151.561 267.455 154.804 267.455 158.727H269.455ZM267.333 148.089C265.929 145.17 263.999 142.917 261.528 141.378L260.472 143.076C262.576 144.386 264.268 146.33 265.531 148.956L267.333 148.089ZM261.531 141.38C259.091 139.851 256.36 139.091 253.364 139.091V141.091C256.004 141.091 258.364 141.755 260.469 143.075L261.531 141.38ZM253.364 139.091C250.368 139.091 247.63 139.851 245.176 141.378L246.233 143.076C248.355 141.755 250.723 141.091 253.364 141.091V139.091ZM245.174 141.38C242.719 142.918 240.791 145.17 239.373 148.085L241.172 148.96C242.451 146.33 244.144 144.385 246.236 143.075L245.174 141.38ZM239.372 148.089C237.956 151.032 237.273 154.592 237.273 158.727H239.273C239.273 154.802 239.923 151.558 241.174 148.956L239.372 148.089ZM237.273 158.727C237.273 162.863 237.956 166.422 239.372 169.365L241.174 168.498C239.923 165.896 239.273 162.652 239.273 158.727H237.273ZM239.373 169.369C240.791 172.285 242.719 174.537 245.174 176.075L246.236 174.38C244.144 173.069 242.451 171.124 241.172 168.494L239.373 169.369ZM245.176 176.076C247.63 177.604 250.368 178.364 253.364 178.364V176.364C250.723 176.364 248.355 175.699 246.233 174.378L245.176 176.076ZM253.364 178.364C256.36 178.364 259.091 177.604 261.531 176.075L260.469 174.38C258.364 175.699 256.004 176.364 253.364 176.364V178.364ZM261.528 176.076C263.999 174.538 265.929 172.284 267.333 169.365L265.531 168.498C264.268 171.125 262.576 173.068 260.472 174.378L261.528 176.076ZM267.331 169.369C268.763 166.425 269.455 162.864 269.455 158.727H267.455C267.455 162.651 266.798 165.893 265.533 168.494L267.331 169.369ZM283.386 182H282.386V183H283.386V182ZM283.386 135.455V134.455H282.386V135.455H283.386ZM289.023 135.455H290.023V134.455H289.023V135.455ZM289.023 177H288.023V178H289.023V177ZM310.659 177H311.659V176H310.659V177ZM310.659 182V183H311.659V182H310.659ZM284.386 182V135.455H282.386V182H284.386ZM283.386 136.455H289.023V134.455H283.386V136.455ZM288.023 135.455V177H290.023V135.455H288.023ZM289.023 178H310.659V176H289.023V178ZM309.659 177V182H311.659V177H309.659ZM310.659 181H283.386V183H310.659V181Z" fill="black"/>
</svg>
